<svg width="24" height="24" viewBox="0 0 28 28" xmlns="http://www.w3.org/2000/svg">
    <defs>
        <symbol id="question">
            <path fill-rule="evenodd" clip-rule="evenodd" d="M12 3C7.02944 3 3 7.02944 3 12C3 16.9706 7.02944 21 12 21C16.9706 21 21 16.9706 21 12C21 7.02944 16.9706 3 12 3ZM1 12C1 5.92487 5.92487 1 12 1C18.0751 1 23 5.92487 23 12C23 18.0751 18.0751 23 12 23C5.92487 23 1 18.0751 1 12Z" fill="currentColor"/>
            <path fill-rule="evenodd" clip-rule="evenodd" d="M12.2582 8.02431C11.7927 7.94446 11.314 8.03194 10.9068 8.27126C10.4996 8.51057 10.1902 8.88628 10.0335 9.33184C9.85018 9.85282 9.27926 10.1266 8.75827 9.94333C8.23728 9.76005 7.96351 9.18914 8.14678 8.66815C8.46025 7.77704 9.07898 7.02562 9.89339 6.54699C10.7078 6.06836 11.6653 5.8934 12.5964 6.0531C13.5274 6.2128 14.3719 6.69685 14.9802 7.41952C15.5884 8.14204 15.9214 9.05647 15.9201 10.0009C15.9197 11.5313 14.7851 12.5419 13.9748 13.082C13.5392 13.3725 13.1107 13.586 12.795 13.7263C12.6358 13.7971 12.5016 13.8508 12.405 13.8876C12.3566 13.906 12.3174 13.9203 12.2888 13.9305L12.2541 13.9427L12.243 13.9464L12.2391 13.9477L12.2376 13.9483C12.2373 13.9484 12.2363 13.9487 11.9201 13L12.2363 13.9487C11.7124 14.1233 11.1461 13.8402 10.9714 13.3162C10.7969 12.7926 11.0796 12.2267 11.6028 12.0517L11.6016 12.0521C11.6017 12.0521 11.6018 12.052 11.6028 12.0517L11.6188 12.0461C11.6342 12.0406 11.6594 12.0314 11.693 12.0186C11.7605 11.9929 11.8607 11.9529 11.9827 11.8987C12.2296 11.789 12.551 11.6275 12.8654 11.4179C13.555 10.9582 13.9201 10.4691 13.9201 9.99999L13.9201 9.9985C13.9208 9.52618 13.7543 9.06886 13.4502 8.70752C13.146 8.34618 12.7238 8.10416 12.2582 8.02431Z" fill="currentColor"/>
            <path fill-rule="evenodd" clip-rule="evenodd" d="M12 15C12.5523 15 13 15.4477 13 16V16.5C13 17.0523 12.5523 17.5 12 17.5C11.4477 17.5 11 17.0523 11 16.5V16C11 15.4477 11.4477 15 12 15Z" fill="currentColor"/>
        </symbol>

        <symbol id="success">
            <path fill-rule="evenodd" clip-rule="evenodd" d="M15.663 3.77342C13.8902 2.98352 11.9096 2.78783 10.0166 3.21555C8.12351 3.64326 6.41942 4.67145 5.15845 6.14678C3.89749 7.62211 3.14721 9.46552 3.01951 11.4021C2.89181 13.3387 3.39354 15.2646 4.44987 16.8928C5.50619 18.5209 7.06051 19.764 8.88102 20.4365C10.7015 21.1091 12.6907 21.1752 14.5518 20.6249C16.413 20.0746 18.0464 18.9375 19.2084 17.3831C20.3705 15.8286 20.9989 13.9402 21 11.9994V11.08C21 10.5277 21.4477 10.08 22 10.08C22.5523 10.08 23 10.5277 23 11.08V12C22.9986 14.3721 22.2306 16.6807 20.8103 18.5806C19.39 20.4804 17.3936 21.8703 15.1189 22.5428C12.8442 23.2154 10.413 23.1346 8.18792 22.3126C5.96285 21.4906 4.06312 19.9713 2.77206 17.9813C1.48099 15.9914 0.86777 13.6374 1.02384 11.2705C1.17992 8.90358 2.09693 6.65052 3.63811 4.84734C5.17929 3.04416 7.26206 1.78748 9.57581 1.26472C11.8896 0.74196 14.3103 0.981129 16.477 1.94656C16.9815 2.17134 17.2082 2.76252 16.9834 3.26699C16.7587 3.77146 16.1675 3.9982 15.663 3.77342Z" fill="currentColor"/>
            <path fill-rule="evenodd" clip-rule="evenodd" d="M22.7068 3.29254C23.0975 3.68287 23.0978 4.31603 22.7075 4.70675L12.7075 14.7168C12.52 14.9044 12.2656 15.0099 12.0002 15.01C11.7349 15.0101 11.4805 14.9047 11.2929 14.7171L8.29289 11.7171C7.90237 11.3266 7.90237 10.6934 8.29289 10.3029C8.68342 9.91237 9.31658 9.91237 9.70711 10.3029L11.9996 12.5954L21.2925 3.29325C21.6829 2.90253 22.316 2.90221 22.7068 3.29254Z" fill="currentColor"/>
        </symbol>
        
        <symbol id="attention">
            <path fill-rule="evenodd" clip-rule="evenodd" d="M10.5282 2.28309C10.9775 2.03014 11.4844 1.89725 12 1.89725C12.5156 1.89725 13.0225 2.03014 13.4718 2.28309C13.9211 2.53604 14.2976 2.90052 14.565 3.34136L14.5679 3.34611L23.0379 17.4861L23.046 17.4999C23.308 17.9536 23.4466 18.4679 23.448 18.9917C23.4495 19.5155 23.3138 20.0306 23.0544 20.4857C22.795 20.9408 22.4209 21.3201 21.9694 21.5857C21.518 21.8514 21.0048 21.9942 20.481 21.9999L20.47 22.0001L3.51903 22C2.99522 21.9942 2.48206 21.8514 2.03059 21.5857C1.57912 21.3201 1.20507 20.9408 0.94567 20.4857C0.686267 20.0306 0.550547 19.5155 0.552014 18.9917C0.55348 18.4679 0.692083 17.9536 0.95403 17.4999L0.962153 17.4861L9.43215 3.34612L10.29 3.85998L9.43502 3.34136C9.70243 2.90052 10.0789 2.53604 10.5282 2.28309ZM11.1462 4.37663L2.68271 18.5058C2.59753 18.6556 2.55249 18.8249 2.55201 18.9973C2.55152 19.1719 2.59676 19.3436 2.68322 19.4953C2.76969 19.647 2.89438 19.7734 3.04487 19.862C3.19404 19.9498 3.36342 19.9973 3.53642 20H20.4636C20.6366 19.9973 20.806 19.9498 20.9552 19.862C21.1057 19.7734 21.2303 19.647 21.3168 19.4953C21.4033 19.3436 21.4485 19.1719 21.448 18.9973C21.4476 18.8249 21.4025 18.6557 21.3174 18.5059L12.855 4.37862C12.8546 4.37796 12.8542 4.37729 12.8538 4.37663C12.7648 4.23058 12.6397 4.1098 12.4906 4.02586C12.3409 3.94154 12.1719 3.89725 12 3.89725C11.8282 3.89725 11.6592 3.94154 11.5094 4.02586C11.3603 4.1098 11.2353 4.23058 11.1462 4.37663Z" fill="currentColor"/>
            <path fill-rule="evenodd" clip-rule="evenodd" d="M12 8C12.5523 8 13 8.44772 13 9V13C13 13.5523 12.5523 14 12 14C11.4477 14 11 13.5523 11 13V9C11 8.44772 11.4477 8 12 8Z" fill="currentColor"/>
            <path fill-rule="evenodd" clip-rule="evenodd" d="M12 15C12.5523 15 13 15.4477 13 16V16.5C13 17.0523 12.5523 17.5 12 17.5C11.4477 17.5 11 17.0523 11 16.5V16C11 15.4477 11.4477 15 12 15Z" fill="currentColor"/>
        </symbol>
     
    </defs>
</svg>


